<?xml version="1.0" standalone="no"?>
<!DOCTYPE svg PUBLIC "-//W3C//DTD SVG 20010904//EN"
 "http://www.w3.org/TR/2001/REC-SVG-20010904/DTD/svg10.dtd">
<svg version="1.0" xmlns="http://www.w3.org/2000/svg"
 width="256.000000pt" height="256.000000pt" viewBox="0 0 256.000000 256.000000"
 preserveAspectRatio="xMidYMid meet">

<g transform="translate(0.000000,256.000000) scale(0.100000,-0.100000)"
fill="#000000" stroke="none">
<path d="M1472 2007 c-13 -56 -26 -112 -29 -125 -5 -22 -3 -23 36 -20 41 3 43
4 66 62 37 90 51 100 145 104 66 4 80 2 80 -11 0 -8 -16 -91 -35 -184 -20 -92
-38 -199 -41 -238 -5 -64 -13 -84 -85 -223 -44 -84 -109 -208 -144 -277 l-63
-125 -6 47 c-3 27 -13 158 -22 292 -17 237 -17 244 1 257 10 8 38 14 61 14 35
0 43 4 48 23 13 48 18 47 -204 47 -161 0 -210 -3 -210 -12 0 -7 -3 -23 -6 -35
-6 -20 -3 -23 25 -23 42 0 71 -31 72 -77 0 -21 15 -200 32 -398 l32 -360 80
-3 80 -3 154 301 c84 166 155 300 156 298 2 -2 23 -137 46 -301 l43 -298 74 3
75 3 189 395 c115 241 198 404 214 418 15 13 38 22 58 22 26 0 35 5 40 23 13
48 15 47 -158 47 -175 0 -176 0 -176 -51 0 -15 7 -19 39 -19 45 0 66 -19 56
-52 -4 -13 -41 -95 -83 -183 -41 -88 -96 -212 -123 -275 -27 -63 -49 -108 -49
-100 0 9 -18 136 -39 283 -37 254 -38 270 -24 320 8 29 32 133 54 232 21 99
41 190 44 203 5 20 11 22 78 22 51 0 79 -5 96 -16 22 -16 23 -22 19 -85 l-5
-69 43 0 c24 0 44 4 44 8 0 5 9 58 20 118 11 60 20 112 20 117 0 4 -179 7
-397 7 l-398 0 -23 -103z"/>
<path d="M422 1929 c-6 -34 -9 -66 -6 -70 3 -5 33 -9 67 -9 39 0 75 -7 97 -18
30 -15 35 -23 38 -57 2 -35 -251 -1266 -279 -1352 -25 -79 -94 -122 -196 -123
-67 0 -65 2 -78 -70 -4 -19 -9 -43 -11 -52 -5 -17 35 -18 745 -18 l750 0 10
38 c22 84 131 522 131 527 0 3 -37 5 -81 3 l-81 -3 -37 -105 c-46 -128 -62
-160 -108 -211 -74 -81 -83 -84 -385 -87 -182 -2 -268 0 -268 7 0 32 293 1408
304 1430 31 59 96 91 185 91 67 0 73 5 85 73 4 21 10 45 13 53 4 12 -58 14
-439 14 l-444 0 -12 -61z"/>
<path d="M2520 770 c0 -16 2 -30 4 -30 2 0 6 14 8 30 3 17 1 30 -4 30 -4 0 -8
-13 -8 -30z"/>
</g>
</svg>
